<mxfile host="65bd71144e">
    <diagram id="bKeCniUfdtDQdnIx8u1Z" name="Page-1">
        <mxGraphModel dx="1208" dy="1808" grid="1" gridSize="10" guides="1" tooltips="1" connect="1" arrows="1" fold="1" page="1" pageScale="1" pageWidth="850" pageHeight="1100" math="0" shadow="0">
            <root>
                <mxCell id="0"/>
                <mxCell id="1" parent="0"/>
                <mxCell id="8" value="" style="edgeStyle=none;entryX=0;entryY=0.5;entryDx=0;entryDy=0;rounded=0;strokeWidth=3;fillColor=#1ba1e2;strokeColor=#006EAF;textShadow=0;labelBorderColor=none;labelBackgroundColor=none;fontColor=default;html=1;" parent="1" source="2" target="3" edge="1">
                    <mxGeometry relative="1" as="geometry"/>
                </mxCell>
                <mxCell id="2" value="Objeto passa na esteira" style="rounded=0;strokeWidth=3;fillColor=#1ba1e2;strokeColor=#006EAF;fontColor=default;textShadow=0;labelBorderColor=none;labelBackgroundColor=none;whiteSpace=wrap;html=1;" parent="1" vertex="1">
                    <mxGeometry x="170" y="170" width="120" height="60" as="geometry"/>
                </mxCell>
                <mxCell id="6" value="" style="edgeStyle=none;entryX=0;entryY=0.5;entryDx=0;entryDy=0;rounded=0;strokeWidth=3;fillColor=#1ba1e2;strokeColor=#006EAF;textShadow=0;labelBorderColor=none;labelBackgroundColor=none;fontColor=default;html=1;" parent="1" source="3" target="5" edge="1">
                    <mxGeometry relative="1" as="geometry"/>
                </mxCell>
                <mxCell id="7" value="" style="edgeStyle=none;exitX=1;exitY=0;exitDx=0;exitDy=0;entryX=0;entryY=0.5;entryDx=0;entryDy=0;rounded=0;strokeWidth=3;fillColor=#1ba1e2;strokeColor=#006EAF;textShadow=0;labelBorderColor=none;labelBackgroundColor=none;fontColor=default;html=1;" parent="1" source="3" target="4" edge="1">
                    <mxGeometry relative="1" as="geometry"/>
                </mxCell>
                <mxCell id="3" value="se" style="rhombus;rounded=0;strokeWidth=3;fillColor=#1ba1e2;strokeColor=#006EAF;fontColor=default;textShadow=0;labelBorderColor=none;labelBackgroundColor=none;whiteSpace=wrap;html=1;" parent="1" vertex="1">
                    <mxGeometry x="350" y="160" width="80" height="80" as="geometry"/>
                </mxCell>
                <mxCell id="10" value="" style="edgeStyle=none;entryX=0;entryY=0.5;entryDx=0;entryDy=0;rounded=0;strokeWidth=3;fillColor=#1ba1e2;strokeColor=#006EAF;textShadow=0;labelBorderColor=none;labelBackgroundColor=none;fontColor=default;html=1;" parent="1" source="4" target="9" edge="1">
                    <mxGeometry relative="1" as="geometry"/>
                </mxCell>
                <mxCell id="4" value="objeto detectado?" style="rounded=0;strokeWidth=3;fillColor=#1ba1e2;strokeColor=#006EAF;fontColor=default;textShadow=0;labelBorderColor=none;labelBackgroundColor=none;whiteSpace=wrap;html=1;" parent="1" vertex="1">
                    <mxGeometry x="480" y="90" width="120" height="60" as="geometry"/>
                </mxCell>
                <mxCell id="12" value="" style="edgeStyle=none;entryX=0;entryY=0.5;entryDx=0;entryDy=0;rounded=0;strokeWidth=3;fillColor=#1ba1e2;strokeColor=#006EAF;textShadow=0;labelBorderColor=none;labelBackgroundColor=none;fontColor=default;html=1;" parent="1" source="5" target="11" edge="1">
                    <mxGeometry relative="1" as="geometry"/>
                </mxCell>
                <mxCell id="5" value="objeto não detectado?" style="rounded=0;strokeWidth=3;fillColor=#1ba1e2;strokeColor=#006EAF;fontColor=default;textShadow=0;labelBorderColor=none;labelBackgroundColor=none;whiteSpace=wrap;html=1;" parent="1" vertex="1">
                    <mxGeometry x="480" y="240" width="120" height="60" as="geometry"/>
                </mxCell>
                <mxCell id="24" value="" style="edgeStyle=none;entryX=0;entryY=0;entryDx=0;entryDy=0;rounded=0;strokeWidth=3;fillColor=#1ba1e2;strokeColor=#006EAF;textShadow=0;labelBorderColor=none;labelBackgroundColor=none;fontColor=default;html=1;" parent="1" source="9" target="14" edge="1">
                    <mxGeometry relative="1" as="geometry"/>
                </mxCell>
                <mxCell id="9" value="Adicionar +1 no valor da variavel esteiraN" style="rounded=0;strokeWidth=3;fillColor=#1ba1e2;strokeColor=#006EAF;fontColor=default;textShadow=0;labelBorderColor=none;labelBackgroundColor=none;whiteSpace=wrap;html=1;" parent="1" vertex="1">
                    <mxGeometry x="670" y="-10" width="120" height="60" as="geometry"/>
                </mxCell>
                <mxCell id="25" value="" style="edgeStyle=none;entryX=0;entryY=1;entryDx=0;entryDy=0;rounded=0;strokeWidth=3;fillColor=#1ba1e2;strokeColor=#006EAF;textShadow=0;labelBorderColor=none;labelBackgroundColor=none;fontColor=default;html=1;" parent="1" source="11" target="14" edge="1">
                    <mxGeometry relative="1" as="geometry"/>
                </mxCell>
                <mxCell id="11" value="Variavel esteiraN continua com o mesmo valor" style="rounded=0;strokeWidth=3;fillColor=#1ba1e2;strokeColor=#006EAF;fontColor=default;textShadow=0;labelBorderColor=none;labelBackgroundColor=none;whiteSpace=wrap;html=1;" parent="1" vertex="1">
                    <mxGeometry x="640" y="300" width="120" height="60" as="geometry"/>
                </mxCell>
                <mxCell id="47" value="" style="edgeStyle=none;entryX=0;entryY=0.5;entryDx=0;entryDy=0;strokeWidth=3;fillColor=#1ba1e2;strokeColor=#006EAF;textShadow=0;labelBorderColor=none;labelBackgroundColor=none;fontColor=default;html=1;" edge="1" parent="1" source="14" target="39">
                    <mxGeometry relative="1" as="geometry"/>
                </mxCell>
                <mxCell id="14" value="Esse processo se repete por quantas esteiras existirem na linha de produção" style="rounded=0;strokeWidth=3;fillColor=#1ba1e2;strokeColor=#006EAF;fontColor=default;textShadow=0;labelBorderColor=none;labelBackgroundColor=none;whiteSpace=wrap;html=1;" parent="1" vertex="1">
                    <mxGeometry x="830" y="120" width="120" height="100" as="geometry"/>
                </mxCell>
                <mxCell id="46" value="" style="edgeStyle=none;entryX=0;entryY=0.5;entryDx=0;entryDy=0;rounded=0;strokeWidth=3;fillColor=#1ba1e2;strokeColor=#006EAF;textShadow=0;labelBorderColor=none;labelBackgroundColor=none;fontColor=default;html=1;" parent="1" source="39" target="45" edge="1">
                    <mxGeometry relative="1" as="geometry"/>
                </mxCell>
                <mxCell id="39" value="Dados&lt;br&gt;(numero de produtos que passou por cada sensor)" style="rounded=0;strokeWidth=3;fillColor=#1ba1e2;strokeColor=#006EAF;fontColor=default;textShadow=0;labelBorderColor=none;labelBackgroundColor=none;whiteSpace=wrap;html=1;" parent="1" vertex="1">
                    <mxGeometry x="1040" y="140" width="120" height="60" as="geometry"/>
                </mxCell>
                <mxCell id="45" value="Total perdido em %" style="rounded=0;strokeWidth=3;fillColor=#1ba1e2;strokeColor=#006EAF;fontColor=default;textShadow=0;labelBorderColor=none;labelBackgroundColor=none;whiteSpace=wrap;html=1;" parent="1" vertex="1">
                    <mxGeometry x="1215" y="140" width="120" height="60" as="geometry"/>
                </mxCell>
            </root>
        </mxGraphModel>
    </diagram>
</mxfile>